<?xml version="1.0" encoding="utf-8"?>
<!-- Svg Vector Icons : http://www.onlinewebfonts.com/icon -->
<!DOCTYPE svg PUBLIC "-//W3C//DTD SVG 1.1//EN" "http://www.w3.org/Graphics/SVG/1.1/DTD/svg11.dtd">
<svg version="1.1" xmlns="http://www.w3.org/2000/svg" xmlns:xlink="http://www.w3.org/1999/xlink" x="0px" y="0px" viewBox="0 0 1000 1000" enable-background="new 0 0 1000 1000" xml:space="preserve">
<metadata> Svg Vector Icons : http://www.onlinewebfonts.com/icon </metadata>
<g><g transform="translate(0.000000,512.000000) scale(0.100000,-0.100000)"><path d="M4455.1,5075.1c-523.6-117.2-1017.9-422-1371.5-842c-296.9-351.7-629.1-955.3-777.5-1408.6c-175.8-537.2-228.6-1004.2-212.9-1912.6l11.7-609.5L1548-535.8c-306.7-459.1-560.7-840.1-564.6-844c-2-3.9-44.9,9.8-93.8,27.3c-119.2,44.9-339.9,33.2-455.2-25.4c-195.4-99.6-312.6-273.5-332.1-488.4C73-2184.7,323.1-2479.7,647.4-2511c113.3-9.8,115.3-9.8,162.1-99.6c58.6-117.2,171.9-222.7,293-279.4c138.7-62.5,351.7-60.6,488.4,3.9c353.6,170,455.2,638.8,203.2,926l-78.1,87.9l566.6,847.9c447.4,672.1,576.3,853.8,621.3,869.4c1230.8,433.7,1738.7,693.6,2281.9,1162.4c511.8,441.5,902.6,992.5,1092.1,1533.6c107.5,310.6,136.8,494.3,134.8,844c0,259.8-7.8,330.2-50.8,498.2c-152.4,582.2-527.5,994.4-1058.9,1162.4C5125.2,5102.4,4648.5,5120,4455.1,5075.1z M5127.1,4821.1c312.6-64.5,627.1-287.2,799-562.6c396.6-636.9,289.1-1568.8-269.6-2346.3C5158.4,1220.5,4548.9,761.4,3652.1,400c-248.1-99.6-785.4-297-806.9-297c-5.9,0-54.7,43-105.5,93.8c-87.9,87.9-279.4,199.3-343.8,199.3c-64.5,0-66.4,1209.3-3.9,1660.6c86,607.6,308.7,1168.3,681.8,1729c347.8,519.7,855.7,900.6,1359.7,1015.9c80.1,17.6,156.3,35.2,166.1,39.1C4656.3,4860.2,5008,4846.5,5127.1,4821.1z M2462.4,87.4c46.9-31.3,101.6-74.3,121.1-97.7c35.2-39.1,25.4-54.7-592-980.7c-345.8-517.7-633-951.4-636.9-965.1c-5.9-15.6,23.4-39.1,78.1-58.6c48.8-17.6,119.2-68.4,156.3-109.4c107.5-119.2,117.2-275.5,25.4-412.2c-128.9-191.4-427.9-187.5-554.8,5.9c-39.1,58.6-52.7,107.4-60.6,222.7c-7.8,125-13.7,144.6-41,132.8c-158.2-64.5-250.1-87.9-312.6-76.2c-152.4,27.3-261.8,140.7-287.2,297c-25.4,158.2,111.4,343.8,273.5,371.2c109.4,17.6,197.3-9.8,298.9-91.8c50.8-43,97.7-78.1,105.5-78.1c5.9,0,295,425.9,642.7,947.5c406.4,609.5,642.7,947.5,664.2,947.5C2360.8,142.1,2413.5,116.7,2462.4,87.4z"/><path d="M4453.1,4520.2c-597.8-193.4-1156.6-740.4-1580.5-1547.3c-123.1-232.5-140.7-304.8-89.9-357.5c101.6-99.6,177.8-46.9,310.6,218.8c314.5,625.2,760,1113.6,1232.8,1350c86,43,201.2,87.9,254,99.6c154.3,37.1,214.9,146.5,127,234.4C4660.2,4565.1,4593.8,4567.1,4453.1,4520.2z"/><path d="M5517.9,3140.9c-60.6-58.6-62.5-142.6-7.8-213c87.9-111.4,271.6-37.1,271.6,109.4c0,76.2-78.1,152.4-156.3,152.4C5588.2,3189.8,5547.2,3172.2,5517.9,3140.9z"/><path d="M5359.6,2439.6c-64.5-29.3-85.9-64.5-85.9-138.7c0-72.3,19.5-107.5,80.1-138.7c70.3-35.2,142.6-19.5,193.4,45c50.8,66.4,48.8,128.9-3.9,189.5C5484.6,2459.1,5433.9,2470.8,5359.6,2439.6z"/><path d="M4697.3,2404.4c-95.7-54.7-115.3-152.4-46.9-238.3c82-103.5,271.6-41,271.6,89.9c0,78.1-19.5,111.3-80.1,142.6C4777.4,2433.7,4750.1,2433.7,4697.3,2404.4z"/><path d="M4881,1765.6c-64.5-64.5-68.4-97.7-27.3-175.8c31.3-62.5,64.5-80.1,144.6-80.1c129,0,189.5,191.5,87.9,271.6C5013.8,1837.9,4949.4,1832,4881,1765.6z"/><path d="M4107.3,1558.5c-86-60.6-72.3-216.9,25.4-261.8c70.3-31.3,113.3-27.3,171.9,19.5c107.5,84,41,271.6-97.7,271.6C4175.7,1587.8,4130.8,1574.1,4107.3,1558.5z"/><path d="M8028.3,3166.3c-70.3-9.8-218.8-48.8-330.2-86C6981.2,2842,6459.5,2336,6020,1458.8c-207.1-414.2-320.4-769.7-400.5-1248.4c-37.1-228.6-41-332.1-43-1045.2v-793.2L5021.6-2466c-304.8-463-554.8-842-556.8-844c-2-2-54.7,15.6-119.2,37.1c-435.7,146.5-875.2-285.3-744.3-732.6c72.3-250.1,283.3-414.2,552.9-429.8c80.1-5.9,86-9.8,134.8-105.5c128.9-261.8,449.3-384.9,742.4-285.2c134.8,44.9,302.8,214.9,349.7,355.6c68.4,207.1,19.5,447.4-125,611.5l-56.7,64.5l560.7,844c523.6,791.2,562.6,845.9,636.9,873.3c43,15.6,271.6,101.6,507.9,187.6c679.8,254,1111.6,472.8,1516,773.7c507.9,379,996.4,961.2,1228.8,1463.3C9999.6,1101.3,9982,1933.6,9601,2506c-103.6,156.3-332.1,375.1-484.5,466.9C8811.7,3152.7,8422.9,3223,8028.3,3166.3z M8647.6,2885c468.9-121.1,806.9-474.7,945.6-994.4c56.7-205.1,60.6-644.7,9.8-875.2C9483.8,470.3,9177-55.3,8692.6-541.7c-492.3-496.2-994.4-781.5-2061.1-1174.2l-312.6-115.3l-60.6,66.4c-97.7,103.6-199.3,171.9-306.7,209.1l-101.6,35.1l-15.6,308.7c-19.5,388.8-2,1045.2,33.2,1316.8c91.8,676,371.2,1348,791.3,1906.8C7176.5,2697.5,7989.2,3055,8647.6,2885z M5955.5-1846.7c171.9-105.5,209.1-21.5-482.5-1068.7c-341.9-515.8-627.1-947.5-634.9-961.2c-9.8-15.6,17.6-37.1,78.1-64.5c115.3-50.8,156.3-87.9,203.2-179.7c109.4-214.9-52.8-484.5-293-484.5c-218.8,0-353.6,158.2-353.6,416.1c0,50.8-7.8,91.8-17.6,91.8s-58.6-17.6-109.4-39.1c-164.1-70.3-326.3-41-425.9,76.2c-107.5,128.9-109.4,302.8-2,431.7c70.3,82.1,144.6,117.2,252,117.2c109.4,0,199.3-39.1,273.5-117.2c31.3-33.2,62.5-58.6,68.4-58.6c7.8,0,298.9,429.8,646.7,957.3C5857.8-1672.9,5789.4-1747.1,5955.5-1846.7z"/><path d="M7911.1,2586.1c-459.1-148.5-937.7-556.8-1316.8-1123.3c-140.6-209-363.4-633-363.4-689.6c0-68.4,56.7-123.1,125-123.1c72.3,0,111.3,35.2,154.3,140.7c50.8,123.1,265.7,484.5,388.8,656.4c324.3,451.3,791.2,816.6,1164.4,912.4c121.2,31.3,160.2,68.4,160.2,146.5C8223.7,2621.3,8108.4,2650.6,7911.1,2586.1z"/><path d="M8995.4,1206.8c-101.6-99.6-23.5-263.7,127-263.7c64.4,0,136.8,85.9,136.8,162.1C9259.1,1242,9093.1,1306.5,8995.4,1206.8z"/><path d="M8800,484c-60.6-58.6-62.5-142.6-7.8-213c84-107.5,271.6-35.2,271.6,105.5c0,37.1-17.6,78.1-48.8,107.5c-29.3,31.3-70.3,48.8-107.5,48.8S8829.3,515.2,8800,484z"/><path d="M8135.8,444.9c-31.3-29.3-48.8-70.3-48.8-107.5c0-37.1,17.6-78.1,48.8-107.5c99.6-101.6,263.7-29.3,263.7,115.3C8399.5,478.1,8231.5,542.6,8135.8,444.9z"/><path d="M8383.9-125.6c-41-15.6-84-119.2-70.3-171.9c15.6-60.6,95.7-127,152.4-127c56.6,0,127,52.8,148.5,109.4c21.5,56.6-9.8,158.2-58.6,183.6C8516.7-111.9,8426.9-108,8383.9-125.6z"/><path d="M7618-352.2c-130.9-66.4-109.4-269.6,29.3-289.2c117.2-17.6,211,76.2,189.5,187.6C7819.3-360,7704-307.3,7618-352.2z"/></g></g>
</svg>