<?xml version="1.0" encoding="utf-8"?>
<!-- Svg Vector Icons : http://www.onlinewebfonts.com/icon -->
<!DOCTYPE svg PUBLIC "-//W3C//DTD SVG 1.1//EN" "http://www.w3.org/Graphics/SVG/1.1/DTD/svg11.dtd">
<svg version="1.1" xmlns="http://www.w3.org/2000/svg" xmlns:xlink="http://www.w3.org/1999/xlink" x="0px" y="0px" viewBox="0 0 1000 1000" enable-background="new 0 0 1000 1000" xml:space="preserve">
<metadata> Svg Vector Icons : http://www.onlinewebfonts.com/icon </metadata>
<g><path d="M347.5,195.7c84,0,152.2-41.6,152.2-92.8c0-51.3-68.1-92.8-152.2-92.8c-84,0-152.2,41.6-152.2,92.8C195.3,154.1,263.4,195.7,347.5,195.7L347.5,195.7L347.5,195.7z M502.7,255H564c-2-9.9-3.1-20.1-3.1-30.6c0-73.5,51.9-134.5,121-149.2c0.5,0,1-0.1,1.5-0.1c16.9,0,30.6-13.7,30.6-30.6c0-16.9-13.7-30.6-30.6-30.6v-0.7c-103.8,15-183.7,103.4-183.7,211.3C499.6,234.9,501.3,244.9,502.7,255L502.7,255L502.7,255z M679.6,255c-44.2,0-141.5,46.2-179.5,63c-38-16.9-139.1-63-183.4-63c-169.2,0-247,137.2-247,306.4c0,23.3,3.1,45.7,8,67.5C110.3,833.3,286,990,499.6,990c212.5,0,387.7-155,421.6-357.9c5.4-22.8,9.1-46.4,9.1-70.9C930.3,392.1,848.7,255,679.6,255L679.6,255L679.6,255z M376.3,399.7c-59.9,29.2-104.3,85.1-117,152.6c-0.3,16.6-13.9,30-30.6,30c-16.9,0-30.6-13.7-30.6-30.6c0-2.6,0.3-5.1,0.9-7.6c15.9-90,75.4-164.2,155.7-201.4c4.1-2,8.7-3.2,13.6-3.2c16.9,0,30.6,13.7,30.6,30.6C398.9,384.3,389.3,396.2,376.3,399.7L376.3,399.7L376.3,399.7z"/></g>
</svg>