<?xml version="1.0" encoding="utf-8"?>
<!-- Svg Vector Icons : http://www.onlinewebfonts.com/icon -->
<!DOCTYPE svg PUBLIC "-//W3C//DTD SVG 1.1//EN" "http://www.w3.org/Graphics/SVG/1.1/DTD/svg11.dtd">
<svg version="1.1" xmlns="http://www.w3.org/2000/svg" xmlns:xlink="http://www.w3.org/1999/xlink" x="0px" y="0px" viewBox="0 0 1000 1000" enable-background="new 0 0 1000 1000" xml:space="preserve">
<metadata> Svg Vector Icons : http://www.onlinewebfonts.com/icon </metadata>
<g><g transform="translate(0.000000,511.000000) scale(0.100000,-0.100000)"><path d="M4741.5,4977.9c-266.2-71.4-520.8-277.8-642.3-524.7c-38.6-75.2-75.2-169.7-82.9-212.2c-11.6-67.5-21.2-81-111.9-121.5c-381.9-177.5-707.9-524.6-852.6-910.4c-108-289.3-106.1-239.2-106.1-3030.3c0-1658.9,7.7-2611.7,19.3-2692.7c82.9-516.9,408.9-968.3,873.8-1207.5c133.1-67.5,148.5-81,148.5-131.2c0-28.9,13.5-108,30.9-173.6c115.7-445.6,522.7-763.8,981.8-763.8c491.9,0,922,364.6,997.2,850.6l23.2,146.6l144.7,73.3c461,237.2,788.9,690.5,869.9,1205.6c11.6,81,19.3,1033.9,19.3,2692.7c0,2791.1,1.9,2740.9-106.1,3030.3c-144.7,385.8-470.6,733-852.6,910.4c-86.8,40.5-100.3,54-111.9,115.7c-5.8,38.6-42.4,133.1-81,212.2C5702.1,4866,5192.9,5099.4,4741.5,4977.9z M5216,4580.5c140.8-52.1,295.1-194.8,354.9-329.8l46.3-100.3V119c0-3935,0-4033.3-36.6-4127.8c-50.2-129.2-198.7-283.5-326-337.6c-150.4-65.6-324.1-71.4-466.8-17.4c-144.7,54-297,194.8-358.8,331.8l-46.3,100.3v4041v4041l44.4,98.4C4562.1,4545.8,4913.2,4694.3,5216,4580.5z M3977.7-3378.1c-17.4-17.4-194.8,113.8-302.8,221.8c-135,138.9-225.7,281.6-297,468.7l-55.9,144.7L3316.1,119c-5.8,2984-13.5,2806.5,135,3097.8c94.5,183.2,245,353,407,461l119.6,81l5.8-3564.6C3985.4-1765.5,3983.5-3372.3,3977.7-3378.1z M6311.6,3533.2c156.3-156.2,262.3-327.9,324.1-520.8l42.4-135V176.9c0-2588.6-1.9-2704.3-36.6-2806.5c-63.7-187.1-171.7-372.3-297.1-505.4c-106.1-111.9-279.7-246.9-318.3-246.9c-7.7,0-13.5,1606.8-13.5,3570.4v3568.4l81-44.4C6140,3687.5,6236.4,3606.4,6311.6,3533.2z"/><path d="M4737.7,4073.2c-63.7-34.7-102.2-125.4-84.9-198.7c13.5-63.7,65.6-119.6,158.2-165.9c125.4-61.7,218-252.7,218-441.7c0-148.5-67.5-272-256.5-470.7c-196.8-208.3-256.6-299-295.1-451.4c-55.9-216,5.8-401.2,223.8-684.8c183.2-239.2,268.1-366.5,333.7-505.4c57.9-121.5,61.7-142.7,61.7-351.1c0-206.4-3.9-227.6-52.1-308.6c-27-48.2-136.9-169.7-241.1-270c-216-210.2-299-345.3-333.7-544c-52.1-299,52.1-572.9,358.8-941.3c218-262.3,277.8-368.4,277.8-491.9c0-138.9-38.6-200.6-277.8-451.3c-121.5-129.2-246.9-273.9-273.9-322.1c-185.2-314.4-94.5-767.7,206.4-1037.8c131.2-117.7,208.3-140.8,302.8-94.5c127.3,61.7,142.7,241.1,28.9,324.1c-136.9,98.4-218,225.7-243,385.8c-23.1,142.7,11.6,206.4,237.3,445.6c299,314.4,362.6,414.7,403.1,632.7c46.3,248.8-48.2,478.4-337.5,825.6c-229.5,272-300.9,412.8-302.8,578.7s40.5,239.2,264.3,453.3c300.9,287.4,380,459.1,380,806.3c0,345.3-98.4,586.4-395.4,981.8c-219.9,291.3-248.8,343.3-248.8,439.8c0,84.9,40.5,142.7,262.3,380c200.6,212.2,283.5,378.1,297.1,598c25.1,368.4-129.2,692.5-407,852.6C4893.9,4108,4814.8,4115.7,4737.7,4073.2z"/><path d="M3572.6,2298.7c-27-25.1-48.2-67.5-48.2-92.6c0-55.9,75.2-129.2,133.1-129.2c54,0,137,81,137,135c0,52.1-82.9,135-135,135C3638.2,2346.9,3597.7,2325.7,3572.6,2298.7z"/><path d="M3572.6,1720c-59.8-57.9-61.7-125.4-3.9-179.4c61.7-57.9,137-54,185.2,7.7c52.1,67.5,50.1,113.8-7.7,171.7C3686.4,1781.7,3632.4,1781.7,3572.6,1720z"/><path d="M3572.6,1141.3c-59.8-57.9-61.7-125.4-3.9-179.4c61.7-57.9,137-54,185.2,7.7c52.1,67.5,50.1,113.8-7.7,171.7C3686.4,1203.1,3632.4,1203.1,3572.6,1141.3z"/><path d="M3572.6,562.7c-59.8-57.9-61.7-125.4-3.9-179.4c61.7-57.9,137-54,185.2,7.7c52.1,67.5,50.1,113.8-7.7,171.7C3686.4,624.4,3632.4,624.4,3572.6,562.7z"/><path d="M3572.6-16c-27-25.1-48.2-67.5-48.2-92.6c0-63.7,67.5-129.2,133.1-129.2c63.7,0,137,71.4,137,133.1c0,54-81,137-135,137C3638.2,32.2,3597.7,11,3572.6-16z"/><path d="M3574.6-592.7c-59.8-57.9-63.7-133.1-11.6-185.2c115.7-115.7,302.8,46.3,198.7,169.7C3703.8-540.7,3630.5-534.9,3574.6-592.7z"/><path d="M3607.3-1144.4c-84.9-34.7-108-148.5-44.4-212.2c115.7-115.7,304.8,46.3,198.7,169.7C3719.2-1138.6,3663.3-1123.2,3607.3-1144.4z"/><path d="M3607.3-1723.1c-84.9-34.7-108-148.5-44.4-212.2c79.1-79.1,231.5-23.2,231.5,84.9C3794.4-1759.7,3692.2-1690.3,3607.3-1723.1z"/><path d="M6255.7,2306.4c-63.7-50.1-65.6-131.2-5.8-187.1c25.1-23.2,63.7-42.4,88.7-42.4c54,0,136.9,81,136.9,135c0,50.2-82.9,135-131.2,135C6323.2,2346.9,6284.6,2329.5,6255.7,2306.4z"/><path d="M6255.7,1727.7c-63.7-50.2-65.6-131.2-5.8-187.1c61.7-57.9,137-54,185.2,7.7c52.1,67.5,50.1,113.8-7.7,171.7C6369.5,1777.9,6323.2,1779.8,6255.7,1727.7z"/><path d="M6255.7,1149.1c-63.7-50.2-67.5-135-7.7-191c59.8-54,138.9-50.2,187.1,11.6c52.1,67.5,50.1,113.8-7.7,171.7C6369.5,1199.2,6323.2,1201.1,6255.7,1149.1z"/><path d="M6253.8,562.7c-57.9-55.9-61.7-131.2-9.6-183.3c55.9-55.9,142.7-50.1,191,11.6c52.1,67.5,50.1,113.8-7.7,171.7C6367.6,624.4,6313.6,624.4,6253.8,562.7z"/><path d="M6253.8-16c-88.7-86.8-36.6-221.8,84.9-221.8c63.7,0,136.9,75.2,136.9,138.9c0,48.2-84.9,131.2-135,131.2C6319.4,32.2,6278.8,11,6253.8-16z"/><path d="M6255.7-592.7c-59.8-57.9-63.7-133.1-11.6-185.2c55.9-55.9,142.7-50.1,191,11.6c50.1,63.7,50.1,106.1,7.7,158.2C6384.9-540.7,6311.6-534.9,6255.7-592.7z"/><path d="M6288.5-1144.4c-131.2-52.1-92.6-250.8,50.2-250.8c61.7,0,136.9,75.2,136.9,135C6475.6-1179.1,6367.6-1113.5,6288.5-1144.4z"/><path d="M6282.7-1728.9c-61.7-30.9-90.7-111.9-61.7-175.5c40.5-90.7,191-90.7,231.5-1.9c30.9,67.5,28.9,94.5-9.6,140.8C6396.5-1713.4,6340.6-1699.9,6282.7-1728.9z"/></g></g>
</svg>